<?xml version="1.0" encoding="utf-8"?>
<!-- Generator: Adobe Illustrator 23.0.4, SVG Export Plug-In . SVG Version: 6.00 Build 0)  -->
<svg version="1.1" id="Layer_1" xmlns="http://www.w3.org/2000/svg" xmlns:xlink="http://www.w3.org/1999/xlink" x="0px" y="0px"
	 viewBox="0 0 80 80" style="enable-background:new 0 0 80 80;" xml:space="preserve">
<style type="text/css">
	.st0{fill:#81C56D;}
	.st1{fill:#5BAA5E;}
	.st2{fill:#B6D997;}
	.st3{fill:#FFFFFF;}
	.st4{fill:#310F32;}
	.st5{fill:#C9D6E3;}
	.st6{fill:#FFC626;}
	.st7{fill:#F99E1D;}
	.st8{fill:#F58127;}
	.st9{fill:#301330;}
	.st10{fill:#EA5535;}
	.st11{fill:#EF4F24;}
	.st12{fill:#F16333;}
	.st13{fill:#DF3426;}
	.st14{fill:#F6946C;}
	.st15{fill:#D6E1EC;}
	.st16{opacity:0.8;}
	.st17{fill:#B9CCDC;}
	.st18{fill:#310E31;}
	.st19{fill:#EA5435;}
	.st20{fill:#FEDD3F;}
	.st21{fill:#EAC01E;}
	.st22{fill:#7FC042;}
	.st23{fill:#65A944;}
	.st24{fill:#0CBEF0;}
	.st25{fill:#6F7BBC;}
	.st26{fill:#0097D5;}
	.st27{fill:#FDB515;}
	.st28{fill:#5365AF;}
	.st29{fill:#1F90CF;}
	.st30{fill:#F99F1B;}
	.st31{opacity:0.7;}
	.st32{fill:#FFF5CA;}
	.st33{opacity:0.6;}
	.st34{fill:#FBDAE8;}
	.st35{fill:#D5E4EF;}
	.st36{opacity:0.4;}
	.st37{fill:#B1DEF5;}
	.st38{opacity:0.5;}
	.st39{fill:#FCE6A0;}
	.st40{fill:#FDF4D2;}
	.st41{fill:#FDD457;}
	.st42{fill:#FFDA85;}
	.st43{fill:#F36F34;}
	.st44{fill:#FFFFFF;stroke:#310F32;stroke-linecap:round;stroke-linejoin:round;stroke-miterlimit:10;}
	.st45{fill:none;stroke:#310F32;stroke-linecap:round;stroke-linejoin:round;stroke-miterlimit:10;}
	.st46{fill:#EE3B24;}
	.st47{fill:#301431;}
	.st48{fill:#71AC43;}
	.st49{fill:#C1DC83;}
	.st50{opacity:0.2;}
	.st51{opacity:0.1;}
	.st52{opacity:0.15;}
	.st53{fill:#5EC1EE;}
	.st54{fill:#239FCB;}
	.st55{fill:#92D1F1;}
	.st56{fill:#B2DCF5;}
	.st57{fill:#FFDF98;}
	.st58{fill:#406DB5;}
	.st59{fill:#FCDE60;}
	.st60{fill:#DEF1FB;}
	.st61{fill:#82CBF0;}
	.st62{fill:#6681C0;}
	.st63{fill:#FBEBAA;}
	.st64{fill:#8799CE;}
	.st65{fill:#98A7D5;}
	.st66{fill:#ACD6F2;}
	.st67{fill:#CCE4F7;}
	.st68{fill:#8BC9EE;}
	.st69{fill:#ADBBC3;}
	.st70{fill:#7E8C9B;}
	.st71{fill:#3B8E4F;}
	.st72{fill:#F05E75;}
	.st73{fill:#FCE5D3;}
	.st74{fill:#F8C4A0;}
</style>
<g>
	<g>
		<g>
			<path class="st0" d="M40,64L40,64c-6.63,0-12-5.37-12-12V30c0-6.63,5.37-12,12-12h0c6.63,0,12,5.37,12,12v22
				C52,58.63,46.63,64,40,64z"/>
		</g>
		<g>
			<path class="st1" d="M48.79,21.83C45.65,18.46,40,20.71,40,25.31l0,12.19c-1.72,0-3.35-0.57-4.69-1.65
				c-0.21-0.17-0.53-0.14-0.7,0.08c-0.17,0.22-0.14,0.53,0.08,0.7c0.84,0.67,1.8,1.18,2.82,1.49c1.48,0.45,2.49,1.81,2.49,3.35V64
				c6.63,0,12-5.37,12-12V30C52,26.84,50.78,23.97,48.79,21.83z"/>
		</g>
		<g>
			<g>
				<path class="st2" d="M30,31c-0.55,0-1-0.45-1-1c0-2.98,1.17-5.77,3.3-7.86c0.39-0.39,1.03-0.38,1.41,0.01
					c0.39,0.39,0.38,1.03-0.01,1.41C31.96,25.28,31,27.56,31,30C31,30.55,30.55,31,30,31z"/>
			</g>
		</g>
		<g>
			<circle class="st3" cx="40" cy="30" r="7"/>
			<path class="st4" d="M40,37.5c-4.14,0-7.5-3.36-7.5-7.5s3.36-7.5,7.5-7.5s7.5,3.36,7.5,7.5S44.14,37.5,40,37.5z M40,23.5
				c-3.58,0-6.5,2.92-6.5,6.5s2.92,6.5,6.5,6.5s6.5-2.92,6.5-6.5S43.58,23.5,40,23.5z"/>
		</g>
		<g>
			<g>
				<path class="st0" d="M43.88,37.5c-0.18,0-0.35-0.09-0.44-0.26c-0.13-0.24-0.05-0.55,0.2-0.68c1.5-0.83,2.68-2.16,3.32-3.75
					c0.1-0.26,0.39-0.38,0.65-0.28c0.26,0.1,0.38,0.4,0.28,0.65c-0.73,1.8-2.06,3.31-3.76,4.25C44.04,37.48,43.96,37.5,43.88,37.5z"
					/>
			</g>
		</g>
		<g>
			<path class="st5" d="M45.32,26.27c-0.45-0.64-1.44-0.22-1.36,0.56c0.2,1.88-0.42,3.83-1.86,5.27c-1.44,1.44-3.39,2.06-5.27,1.86
				c-0.78-0.08-1.2,0.91-0.56,1.36c1.31,0.92,2.98,1.38,4.75,1.11c2.75-0.42,4.99-2.65,5.41-5.41
				C46.69,29.24,46.24,27.58,45.32,26.27z"/>
		</g>
		<g>
			<path class="st4" d="M42,32c0,1.11-0.89,2-2,2s-2-0.89-2-2c0-1.1,0.9-2,2-2S42,30.9,42,32z"/>
		</g>
		<g>
			<path class="st9" d="M46,38.5H34c-1.38,0-2.5,1.12-2.5,2.5c0,3.46,3.97,6.5,8.5,6.5s8.5-3.04,8.5-6.5
				C48.5,39.62,47.38,38.5,46,38.5z"/>
			<path class="st3" d="M36.62,41h0.76c0.38,0,0.73-0.21,0.89-0.55l0.47-0.95h-3.5l0.47,0.95C35.89,40.79,36.24,41,36.62,41z"/>
			<path class="st3" d="M42.62,41h0.76c0.38,0,0.73-0.21,0.89-0.55l0.47-0.95h-3.5l0.47,0.95C41.89,40.79,42.24,41,42.62,41z"/>
			<path class="st10" d="M41.04,44.14c-0.33-0.09-0.64-0.14-1-0.14c-0.33,0-0.69,0.04-1,0.12c-1.01,0.25-1.84,0.9-2.38,1.75
				c1,0.39,2.12,0.63,3.34,0.63c1.22,0,2.35-0.24,3.34-0.64C42.81,45.04,42.01,44.4,41.04,44.14z"/>
		</g>
	</g>
	<g>
		<path class="st6" d="M27,49v3c0,7.18,5.82,13,13,13s13-5.82,13-13v-3H27z"/>
	</g>
	<g>
		<path class="st7" d="M51,49H40v3c0,0.71-0.05,1.43-0.14,2.17c-0.73,5.91-9.22,6.41-10.53,0.6C29.11,53.82,29,52.83,29,51.81V49h-2
			l0,2.63c0,7,5.38,13.02,12.37,13.35C46.84,65.34,53,59.39,53,52v-3H51z"/>
	</g>
	<g>
		<path class="st8" d="M53,52.5h-1.02C51.99,52.33,52,52.17,52,52c0-0.28-0.22-0.5-0.5-0.5c-0.37,0-0.65,0.41-0.41,0.8
			c-0.06,0.11-0.05,0.09-0.11,0.2l-6.98,0c-0.28,0-0.5,0.22-0.5,0.5s0.22,0.5,0.5,0.5l3.09,0c2.1,0,3.42,2.29,2.35,4.09
			c-1.37,2.31-3.57,4.11-6.23,4.93c-0.26,0.08-0.41,0.36-0.33,0.62c0.07,0.22,0.26,0.35,0.48,0.35c0.05,0,0.1-0.01,0.15-0.02
			c4.52-1.38,7.8-5.37,8.39-9.98H53c0.28,0,0.5-0.22,0.5-0.5S53.28,52.5,53,52.5z"/>
	</g>
	<g>
		<path class="st4" d="M40,66c-7.72,0-14-6.28-14-14v-3c0-0.55,0.45-1,1-1h26c0.55,0,1,0.45,1,1v3C54,59.72,47.72,66,40,66z M28,50
			v2c0,6.62,5.38,12,12,12s12-5.38,12-12v-2H28z"/>
	</g>
	<path class="st4" d="M53,48V30c0-4.35-2.15-8.2-5.44-10.56c0.22-1.37,1.23-2.46,2.55-2.81C50.38,17.42,51.12,18,52,18
		c1.1,0,2-0.9,2-2c0-1.1-0.9-2-2-2c-0.97,0-1.78,0.69-1.96,1.61c-1.65,0.36-2.95,1.63-3.37,3.25C44.71,17.69,42.44,17,40,17
		s-4.71,0.69-6.66,1.86c-0.43-1.62-1.73-2.89-3.37-3.25C29.78,14.69,28.97,14,28,14c-1.1,0-2,0.9-2,2c0,1.1,0.9,2,2,2
		c0.88,0,1.62-0.58,1.89-1.37c1.32,0.35,2.33,1.45,2.55,2.81C29.15,21.8,27,25.65,27,30v18c-0.55,0-1,0.45-1,1v3
		c0,2.52,0.67,4.88,1.84,6.93c0.67,1.17,0.47,2.64-0.48,3.59l-0.84,0.84c-0.57,0.57-0.68,1.5-0.16,2.11
		c0.3,0.35,0.72,0.53,1.15,0.53c0.38,0,0.77-0.15,1.06-0.44l0.92-0.92c0.95-0.95,2.42-1.15,3.59-0.48C35.12,65.33,37.48,66,40,66
		s4.88-0.67,6.93-1.84c1.17-0.67,2.64-0.47,3.59,0.48l0.92,0.92C51.73,65.85,52.12,66,52.5,66c0.42,0,0.84-0.18,1.15-0.53
		c0.52-0.61,0.4-1.54-0.16-2.11l-0.84-0.84c-0.95-0.95-1.15-2.42-0.48-3.59C53.33,56.88,54,54.52,54,52v-3C54,48.45,53.55,48,53,48z
		 M28,51.5V50h24v1.5H28z M29,30c0-6.07,4.93-11,11-11s11,4.93,11,11v18H29V30z M40,64c-6.45,0-11.71-5.12-11.97-11.5h23.95
		C51.71,58.88,46.45,64,40,64z"/>
	<g>
		<circle class="st0" cx="52" cy="16" r="1"/>
	</g>
	<g>
		<circle class="st0" cx="28" cy="16" r="1"/>
	</g>
</g>
</svg>
