<?xml version="1.0" encoding="utf-8"?>
<!-- Generator: Adobe Illustrator 23.0.4, SVG Export Plug-In . SVG Version: 6.00 Build 0)  -->
<svg version="1.1" id="Layer_1" xmlns="http://www.w3.org/2000/svg" xmlns:xlink="http://www.w3.org/1999/xlink" x="0px" y="0px"
	 viewBox="0 0 80 80" style="enable-background:new 0 0 80 80;" xml:space="preserve">
<style type="text/css">
	.st0{fill:#81C56D;}
	.st1{fill:#5BAA5E;}
	.st2{fill:#B6D997;}
	.st3{fill:#FFFFFF;}
	.st4{fill:#310F32;}
	.st5{fill:#C9D6E3;}
	.st6{fill:#FFC626;}
	.st7{fill:#F99E1D;}
	.st8{fill:#F58127;}
	.st9{fill:#301330;}
	.st10{fill:#EA5535;}
	.st11{fill:#EF4F24;}
	.st12{fill:#F16333;}
	.st13{fill:#DF3426;}
	.st14{fill:#F6946C;}
	.st15{fill:#D6E1EC;}
	.st16{opacity:0.8;}
	.st17{fill:#B9CCDC;}
	.st18{fill:#310E31;}
	.st19{fill:#EA5435;}
	.st20{fill:#FEDD3F;}
	.st21{fill:#EAC01E;}
	.st22{fill:#7FC042;}
	.st23{fill:#65A944;}
	.st24{fill:#0CBEF0;}
	.st25{fill:#6F7BBC;}
	.st26{fill:#0097D5;}
	.st27{fill:#FDB515;}
	.st28{fill:#5365AF;}
	.st29{fill:#1F90CF;}
	.st30{fill:#F99F1B;}
	.st31{opacity:0.7;}
	.st32{fill:#FFF5CA;}
	.st33{opacity:0.6;}
	.st34{fill:#FBDAE8;}
	.st35{fill:#D5E4EF;}
	.st36{opacity:0.4;}
	.st37{fill:#B1DEF5;}
	.st38{opacity:0.5;}
	.st39{fill:#FCE6A0;}
	.st40{fill:#FDF4D2;}
	.st41{fill:#FDD457;}
	.st42{fill:#FFDA85;}
	.st43{fill:#F36F34;}
	.st44{fill:#FFFFFF;stroke:#310F32;stroke-linecap:round;stroke-linejoin:round;stroke-miterlimit:10;}
	.st45{fill:none;stroke:#310F32;stroke-linecap:round;stroke-linejoin:round;stroke-miterlimit:10;}
	.st46{fill:#EE3B24;}
	.st47{fill:#301431;}
	.st48{fill:#71AC43;}
	.st49{fill:#C1DC83;}
	.st50{opacity:0.2;}
	.st51{opacity:0.1;}
	.st52{opacity:0.15;}
	.st53{fill:#5EC1EE;}
	.st54{fill:#239FCB;}
	.st55{fill:#92D1F1;}
	.st56{fill:#B2DCF5;}
	.st57{fill:#FFDF98;}
	.st58{fill:#406DB5;}
	.st59{fill:#FCDE60;}
	.st60{fill:#DEF1FB;}
	.st61{fill:#82CBF0;}
	.st62{fill:#6681C0;}
	.st63{fill:#FBEBAA;}
	.st64{fill:#8799CE;}
	.st65{fill:#98A7D5;}
	.st66{fill:#ACD6F2;}
	.st67{fill:#CCE4F7;}
	.st68{fill:#8BC9EE;}
	.st69{fill:#ADBBC3;}
	.st70{fill:#7E8C9B;}
	.st71{fill:#3B8E4F;}
	.st72{fill:#F05E75;}
	.st73{fill:#FCE5D3;}
	.st74{fill:#F8C4A0;}
</style>
<g>
	<g>
		<g>
			<path class="st12" d="M40,66.5L40,66.5c-6.63,0-12-5.37-12-12v-22c0-6.63,5.37-12,12-12h0c6.63,0,12,5.37,12,12v22
				C52,61.13,46.63,66.5,40,66.5z"/>
		</g>
		<g>
			<path class="st13" d="M48.79,24.33C45.65,20.96,40,23.21,40,27.81v0c0,1.86,1.82,3.22,3.59,2.64c0.08-0.03,0.16-0.05,0.24-0.08
				c0.26-0.09,0.55,0.04,0.64,0.3c0.09,0.26-0.04,0.55-0.3,0.64c-0.01,0-0.03,0.01-0.04,0.01C41.7,32.19,40,34.39,40,36.97V40
				c-1.72,0-3.35-0.57-4.69-1.65c-0.21-0.17-0.53-0.14-0.7,0.08c-0.17,0.22-0.14,0.53,0.08,0.7c0.84,0.67,1.8,1.18,2.82,1.49
				c1.48,0.45,2.49,1.81,2.49,3.35l0,22.52c6.63,0,12-5.37,12-12v-22C52,29.34,50.78,26.47,48.79,24.33z"/>
		</g>
		<g>
			<g>
				<path class="st14" d="M30,33.5c-0.55,0-1-0.45-1-1c0-2.98,1.17-5.77,3.3-7.86c0.39-0.39,1.03-0.38,1.41,0.01
					c0.39,0.39,0.38,1.03-0.01,1.41c-1.74,1.71-2.7,3.99-2.7,6.43C31,33.05,30.55,33.5,30,33.5z"/>
			</g>
		</g>
		<g>
			<g>
				<path class="st12" d="M43.88,40c-0.18,0-0.35-0.09-0.44-0.26c-0.13-0.24-0.05-0.55,0.2-0.68c1.5-0.83,2.68-2.16,3.32-3.75
					c0.1-0.26,0.39-0.38,0.65-0.28c0.26,0.1,0.38,0.4,0.28,0.65c-0.73,1.8-2.06,3.31-3.76,4.25C44.04,39.98,43.96,40,43.88,40z"/>
			</g>
		</g>
		<g>
			<path class="st3" d="M40,32.5c-2.8,0-5.27-0.81-6.7-2.04c-0.2,0.65-0.3,1.33-0.3,2.04c0,3.87,3.13,7,7,7s7-3.13,7-7
				c0-0.71-0.11-1.4-0.3-2.04C45.27,31.69,42.8,32.5,40,32.5z"/>
		</g>
		<g>
			<path class="st4" d="M40,32.5c-0.87,0-1.7-0.08-2.48-0.22c-0.01,0.07-0.02,0.15-0.02,0.22c0,1.38,1.12,2.5,2.5,2.5
				s2.5-1.12,2.5-2.5c0-0.08-0.02-0.15-0.02-0.22C41.7,32.42,40.87,32.5,40,32.5z"/>
		</g>
		<g>
			<path class="st5" d="M43.68,31.99c-0.3,0.95-0.83,1.85-1.58,2.6c-1.44,1.44-3.39,2.06-5.27,1.86c-0.78-0.08-1.2,0.91-0.56,1.36
				c1.31,0.92,2.98,1.38,4.75,1.11c2.75-0.42,4.99-2.65,5.41-5.41c0.15-0.95,0.08-1.87-0.16-2.72
				C45.57,31.29,44.69,31.7,43.68,31.99z"/>
		</g>
		<g>
			<path class="st4" d="M40,40c-4.14,0-7.5-3.36-7.5-7.5c0-0.74,0.11-1.48,0.33-2.19c0.05-0.16,0.18-0.29,0.34-0.33
				c0.16-0.05,0.34-0.01,0.46,0.1C35.03,31.28,37.41,32,40,32s4.97-0.72,6.37-1.92c0.13-0.11,0.31-0.15,0.46-0.1
				c0.16,0.05,0.29,0.17,0.34,0.33c0.22,0.71,0.33,1.45,0.33,2.19C47.5,36.64,44.14,40,40,40z M33.61,31.31
				c-0.07,0.39-0.11,0.79-0.11,1.19c0,3.58,2.92,6.5,6.5,6.5s6.5-2.92,6.5-6.5c0-0.4-0.04-0.79-0.11-1.19
				C44.79,32.38,42.47,33,40,33S35.21,32.38,33.61,31.31z"/>
		</g>
	</g>
	<g>
		<path class="st6" d="M27,51.5v3c0,7.18,5.82,13,13,13s13-5.82,13-13v-3H27z"/>
	</g>
	<g>
		<path class="st7" d="M51,51.5H40v3c0,0.71-0.05,1.43-0.14,2.17c-0.73,5.91-9.22,6.41-10.53,0.6C29.11,56.32,29,55.33,29,54.31
			V51.5h-2l0,2.63c0,7,5.38,13.02,12.37,13.35C46.84,67.84,53,61.89,53,54.5v-3H51z"/>
	</g>
	<g>
		<path class="st8" d="M53,55h-1.02c0.01-0.17,0.02-0.33,0.02-0.5c0-0.28-0.22-0.5-0.5-0.5c-0.37,0-0.65,0.41-0.41,0.8
			c-0.06,0.11-0.05,0.09-0.11,0.2L44,55c-0.28,0-0.5,0.22-0.5,0.5S43.72,56,44,56l3.09,0c2.1,0,3.42,2.29,2.35,4.09
			c-1.37,2.31-3.57,4.11-6.23,4.93c-0.26,0.08-0.41,0.36-0.33,0.62c0.07,0.22,0.26,0.35,0.48,0.35c0.05,0,0.1-0.01,0.15-0.02
			c4.52-1.38,7.8-5.37,8.39-9.98H53c0.28,0,0.5-0.22,0.5-0.5S53.28,55,53,55z"/>
	</g>
	<g>
		<path class="st15" d="M68.07,26.59c-1.86-0.32-3.58,0.22-4.86,1.28c-0.92,0.76-2.11,1.03-3.26,0.75
			c-0.61-0.15-1.28-0.16-1.97,0.01c-1.44,0.36-2.6,1.57-2.89,3.03c-0.53,2.58,1.43,4.85,3.91,4.85c0.37,0,0.72-0.05,1.06-0.14
			c1.13-0.31,2.3,0.08,3.21,0.82C64.29,38,65.58,38.5,67,38.5c3.67,0,6.57-3.3,5.9-7.1C72.48,28.99,70.49,27.01,68.07,26.59z"/>
	</g>
	<g class="st16">
		<path class="st17" d="M71.64,28.7c-0.55-0.67-1.66-0.24-1.64,0.63c0.01,0.49-0.03,1.01-0.15,1.53v0c-0.51,2.22-2.6,3.71-4.86,3.47
			l-0.16-0.02c-1.1-0.12-1.96-1.04-2.01-2.14c-0.02-0.59-0.1-1.17-0.27-1.5c-0.38-0.73-1.49-0.47-1.59,0.35
			c-0.1,0.85-0.48,1.67-1.13,2.32c-0.67,0.67-1.51,1.05-2.38,1.14c-0.8,0.09-1.05,1.17-0.34,1.55c0.8,0.44,1.78,0.6,2.8,0.38
			c0.05-0.01,0.11-0.03,0.16-0.05v0c1.12-0.31,2.27,0.08,3.18,0.8c0.24,0.2,0.5,0.37,0.77,0.53c0.03,0.02,0.06,0.04,0.09,0.06
			c0.21,0.12,0.43,0.21,0.65,0.3c0.1,0.04,0.2,0.09,0.3,0.13c0.18,0.06,0.37,0.1,0.55,0.15c0.15,0.04,0.3,0.08,0.46,0.1
			c0.17,0.03,0.34,0.03,0.51,0.04c0.14,0.01,0.27,0.04,0.42,0.04c0.06,0,0.12-0.01,0.18-0.01c0.06,0,0.11-0.01,0.17-0.01
			c0.31-0.02,0.62-0.06,0.92-0.12c0.03-0.01,0.06-0.01,0.09-0.01c0.09-0.02,0.17-0.05,0.26-0.08c0.08-0.02,0.16-0.04,0.24-0.07
			c1.98-0.63,3.54-2.3,3.99-4.34C73.28,31.9,72.75,30.05,71.64,28.7z"/>
	</g>
	<g>
		<circle class="st15" cx="60" cy="25.5" r="1"/>
	</g>
	<g>
		<circle class="st15" cx="60" cy="38.5" r="1"/>
	</g>
	<g>
		<circle class="st15" cx="57.5" cy="27" r="0.5"/>
	</g>
	<g>
		<circle class="st15" cx="56.5" cy="40" r="0.5"/>
	</g>
	<g>
		<circle class="st15" cx="55.5" cy="37" r="0.5"/>
	</g>
	<g>
		<path class="st15" d="M11.93,26.59c1.86-0.32,3.58,0.22,4.86,1.28c0.92,0.76,2.11,1.03,3.26,0.75c0.61-0.15,1.28-0.16,1.97,0.01
			c1.44,0.36,2.6,1.57,2.89,3.03c0.53,2.58-1.43,4.85-3.91,4.85c-0.37,0-0.72-0.05-1.06-0.14c-1.13-0.31-2.3,0.08-3.21,0.82
			C15.71,38,14.42,38.5,13,38.5c-3.67,0-6.57-3.3-5.9-7.1C7.52,28.99,9.51,27.01,11.93,26.59z"/>
	</g>
	<g>
		<circle class="st15" cx="21" cy="25.5" r="1"/>
	</g>
	<g>
		<circle class="st15" cx="21" cy="38.5" r="1"/>
	</g>
	<g>
		<circle class="st15" cx="23.5" cy="27" r="0.5"/>
	</g>
	<g>
		<circle class="st15" cx="24.5" cy="40" r="0.5"/>
	</g>
	<g>
		<circle class="st15" cx="25.5" cy="37" r="0.5"/>
	</g>
	<g class="st16">
		<path class="st17" d="M24.61,30.78c-0.49-1.02-1.96-0.78-2.27,0.31c-0.18,0.63-0.51,1.23-1.01,1.73
			c-0.01,0.01-0.01,0.01-0.02,0.02c-0.87,0.86-2.37,0.2-2.43-1.02c-0.02-0.45-0.07-0.89-0.17-1.2c-0.47-1.42-2.52-1.31-2.84,0.15
			l-0.01,0.06c-0.4,1.82-1.6,3.38-3.3,4.11c-0.44,0.19-0.87,0.32-1.29,0.41c-1.46,0.3-1.64,2.31-0.22,2.8
			c1.01,0.35,2.15,0.44,3.33,0.18c0.96-0.21,1.82-0.64,2.53-1.23c0.84-0.71,1.95-1.1,3.01-0.78c0.68,0.2,1.43,0.22,2.22,0.01
			c1.39-0.37,2.42-1.43,2.76-2.83C25.12,32.53,24.99,31.58,24.61,30.78z"/>
	</g>
	<path class="st4" d="M54,54.5v-3c0-0.55-0.45-1-1-1v-18c0-4.37-2.18-8.24-5.5-10.6v-6.47c0.86-0.22,1.5-1,1.5-1.93c0-1.1-0.9-2-2-2
		s-2,0.9-2,2c0,0.93,0.64,1.71,1.5,1.93v5.83c-1.91-1.11-4.13-1.76-6.5-1.76s-4.59,0.65-6.5,1.76v-5.83c0.86-0.22,1.5-1,1.5-1.93
		c0-1.1-0.9-2-2-2s-2,0.9-2,2c0,0.93,0.64,1.71,1.5,1.93v6.47c-3.32,2.36-5.5,6.23-5.5,10.6v18c-0.55,0-1,0.45-1,1v3
		c0,2.52,0.67,4.88,1.84,6.93c0.67,1.17,0.47,2.64-0.48,3.59l-0.84,0.84c-0.57,0.57-0.68,1.5-0.16,2.11
		c0.3,0.35,0.72,0.53,1.15,0.53c0.38,0,0.77-0.15,1.06-0.44l0.92-0.92c0.95-0.95,2.42-1.15,3.59-0.48c2.04,1.17,4.41,1.84,6.93,1.84
		s4.88-0.67,6.93-1.84c1.17-0.67,2.64-0.47,3.59,0.48l0.92,0.92c0.29,0.29,0.68,0.44,1.06,0.44c0.42,0,0.84-0.18,1.15-0.53
		c0.52-0.61,0.4-1.54-0.16-2.11l-0.84-0.84c-0.95-0.95-1.15-2.42-0.48-3.59C53.33,59.38,54,57.02,54,54.5z M29,32.5
		c0-6.07,4.93-11,11-11s11,4.93,11,11v18H29V32.5z M40,66.5c-6.45,0-11.71-5.12-11.97-11.5h23.95C51.71,61.38,46.45,66.5,40,66.5z
		 M52,54H28v-1.5h24V54z"/>
	<g>
		<circle class="st12" cx="47" cy="13.5" r="1"/>
	</g>
	<g>
		<path class="st4" d="M40,42c-3.46,0-6.5,2.34-6.5,5c0,1.1,0.89,1.99,2.07,1.99c0,0,0.01,0,0.01,0l1.65-0.28
			c1.83-0.31,3.69-0.31,5.53,0l1.65,0.28C44.45,49,44.47,49,44.5,49c1.1,0,2-0.9,2-2C46.5,44.34,43.46,42,40,42z"/>
		<path class="st10" d="M40.87,46.64c-0.28-0.09-0.53-0.14-0.83-0.14c-0.27,0-0.58,0.04-0.83,0.12c-0.59,0.17-1.1,0.54-1.51,1.04
			c1.54-0.2,3.08-0.2,4.62,0C41.91,47.18,41.42,46.82,40.87,46.64z"/>
	</g>
	<g>
		<circle class="st12" cx="33" cy="13.5" r="1"/>
	</g>
</g>
</svg>
