<?xml version="1.0" encoding="utf-8"?>
<!-- Generator: Adobe Illustrator 23.0.4, SVG Export Plug-In . SVG Version: 6.00 Build 0)  -->
<svg version="1.1" id="Layer_1" xmlns="http://www.w3.org/2000/svg" xmlns:xlink="http://www.w3.org/1999/xlink" x="0px" y="0px"
	 viewBox="0 0 80 80" style="enable-background:new 0 0 80 80;" xml:space="preserve">
<style type="text/css">
	.st0{fill:#81C56D;}
	.st1{fill:#5BAA5E;}
	.st2{fill:#B6D997;}
	.st3{fill:#FFFFFF;}
	.st4{fill:#310F32;}
	.st5{fill:#C9D6E3;}
	.st6{fill:#FFC626;}
	.st7{fill:#F99E1D;}
	.st8{fill:#F58127;}
	.st9{fill:#301330;}
	.st10{fill:#EA5535;}
	.st11{fill:#EF4F24;}
	.st12{fill:#F16333;}
	.st13{fill:#DF3426;}
	.st14{fill:#F6946C;}
	.st15{fill:#D6E1EC;}
	.st16{opacity:0.8;}
	.st17{fill:#B9CCDC;}
	.st18{fill:#310E31;}
	.st19{fill:#EA5435;}
	.st20{fill:#FEDD3F;}
	.st21{fill:#EAC01E;}
	.st22{fill:#7FC042;}
	.st23{fill:#65A944;}
	.st24{fill:#0CBEF0;}
	.st25{fill:#6F7BBC;}
	.st26{fill:#0097D5;}
	.st27{fill:#FDB515;}
	.st28{fill:#5365AF;}
	.st29{fill:#1F90CF;}
	.st30{fill:#F99F1B;}
	.st31{opacity:0.7;}
	.st32{fill:#FFF5CA;}
	.st33{opacity:0.6;}
	.st34{fill:#FBDAE8;}
	.st35{fill:#D5E4EF;}
	.st36{opacity:0.4;}
	.st37{fill:#B1DEF5;}
	.st38{opacity:0.5;}
	.st39{fill:#FCE6A0;}
	.st40{fill:#FDF4D2;}
	.st41{fill:#FDD457;}
	.st42{fill:#FFDA85;}
	.st43{fill:#F36F34;}
	.st44{fill:#FFFFFF;stroke:#310F32;stroke-linecap:round;stroke-linejoin:round;stroke-miterlimit:10;}
	.st45{fill:none;stroke:#310F32;stroke-linecap:round;stroke-linejoin:round;stroke-miterlimit:10;}
	.st46{fill:#EE3B24;}
	.st47{fill:#301431;}
	.st48{fill:#71AC43;}
	.st49{fill:#C1DC83;}
	.st50{opacity:0.2;}
	.st51{opacity:0.1;}
	.st52{opacity:0.15;}
	.st53{fill:#5EC1EE;}
	.st54{fill:#239FCB;}
	.st55{fill:#92D1F1;}
	.st56{fill:#B2DCF5;}
	.st57{fill:#FFDF98;}
	.st58{fill:#406DB5;}
	.st59{fill:#FCDE60;}
	.st60{fill:#DEF1FB;}
	.st61{fill:#82CBF0;}
	.st62{fill:#6681C0;}
	.st63{fill:#FBEBAA;}
	.st64{fill:#8799CE;}
	.st65{fill:#98A7D5;}
	.st66{fill:#ACD6F2;}
	.st67{fill:#CCE4F7;}
	.st68{fill:#8BC9EE;}
	.st69{fill:#ADBBC3;}
	.st70{fill:#7E8C9B;}
	.st71{fill:#3B8E4F;}
	.st72{fill:#F05E75;}
	.st73{fill:#FCE5D3;}
	.st74{fill:#F8C4A0;}
</style>
<g>
	<g>
		<g>
			<path class="st0" d="M40,62.5L40,62.5c-6.63,0-12-5.37-12-12v-22c0-6.63,5.37-12,12-12h0c6.63,0,12,5.37,12,12v22
				C52,57.13,46.63,62.5,40,62.5z"/>
		</g>
		<g>
			<path class="st1" d="M48.79,20.33C45.65,16.96,40,19.21,40,23.81L40,36c-1.72,0-3.35-0.57-4.69-1.65
				c-0.21-0.17-0.53-0.14-0.7,0.08c-0.17,0.22-0.14,0.53,0.08,0.7c0.84,0.67,1.8,1.18,2.82,1.49c1.48,0.45,2.49,1.81,2.49,3.35V62.5
				c6.63,0,12-5.37,12-12v-22C52,25.34,50.78,22.47,48.79,20.33z"/>
		</g>
		<g>
			<g>
				<path class="st2" d="M30,29.5c-0.55,0-1-0.45-1-1c0-2.98,1.17-5.77,3.3-7.86c0.39-0.39,1.03-0.38,1.41,0.01
					c0.39,0.39,0.38,1.03-0.01,1.41c-1.74,1.71-2.7,3.99-2.7,6.43C31,29.05,30.55,29.5,30,29.5z"/>
			</g>
		</g>
		<g>
			<circle class="st3" cx="40" cy="28.5" r="7"/>
			<path class="st4" d="M40,36c-4.14,0-7.5-3.36-7.5-7.5S35.86,21,40,21s7.5,3.36,7.5,7.5S44.14,36,40,36z M40,22
				c-3.58,0-6.5,2.92-6.5,6.5S36.42,35,40,35s6.5-2.92,6.5-6.5S43.58,22,40,22z"/>
		</g>
		<g>
			<path class="st5" d="M45.32,24.77c-0.45-0.64-1.44-0.22-1.36,0.56c0.2,1.88-0.42,3.83-1.86,5.27c-1.44,1.44-3.39,2.06-5.27,1.86
				c-0.78-0.08-1.2,0.91-0.56,1.36c1.31,0.92,2.98,1.38,4.75,1.11c2.75-0.42,4.99-2.65,5.41-5.41
				C46.69,27.74,46.24,26.08,45.32,24.77z"/>
		</g>
		<g>
			<g>
				<path class="st0" d="M43.88,36c-0.18,0-0.35-0.09-0.44-0.26c-0.13-0.24-0.05-0.55,0.2-0.68c1.5-0.83,2.68-2.16,3.32-3.75
					c0.1-0.26,0.39-0.38,0.65-0.28c0.26,0.1,0.38,0.4,0.28,0.65c-0.73,1.8-2.06,3.31-3.76,4.25C44.04,35.98,43.96,36,43.88,36z"/>
			</g>
		</g>
		<g>
			<path class="st4" d="M42,28.5c0,1.11-0.89,2-2,2s-2-0.89-2-2c0-1.1,0.9-2,2-2S42,27.4,42,28.5z"/>
		</g>
	</g>
	<g>
		<path class="st6" d="M27,47.5v3c0,7.18,5.82,13,13,13s13-5.82,13-13v-3H27z"/>
	</g>
	<g>
		<path class="st7" d="M51,47.5H40v3c0,0.71-0.05,1.43-0.14,2.17c-0.73,5.91-9.22,6.41-10.53,0.6C29.11,52.32,29,51.33,29,50.31
			V47.5h-2l0,2.63c0,7,5.38,13.02,12.37,13.35C46.84,63.84,53,57.89,53,50.5v-3H51z"/>
	</g>
	<g>
		<path class="st8" d="M53,51h-1.02c0.01-0.17,0.02-0.33,0.02-0.5c0-0.28-0.22-0.5-0.5-0.5c-0.37,0-0.65,0.41-0.41,0.8
			c-0.06,0.11-0.05,0.09-0.11,0.2L44,51c-0.28,0-0.5,0.22-0.5,0.5S43.72,52,44,52l3.09,0c2.1,0,3.42,2.29,2.35,4.09
			c-1.37,2.31-3.57,4.11-6.23,4.93c-0.26,0.08-0.41,0.36-0.33,0.62c0.07,0.22,0.26,0.35,0.48,0.35c0.05,0,0.1-0.01,0.15-0.02
			c4.52-1.38,7.8-5.37,8.39-9.98H53c0.28,0,0.5-0.22,0.5-0.5S53.28,51,53,51z"/>
	</g>
	<g>
		<path class="st4" d="M37.01,41c-0.15,0-0.29-0.06-0.39-0.19c-0.17-0.22-0.14-0.53,0.08-0.7c1.83-1.47,4.8-1.47,6.63,0
			c0.22,0.17,0.25,0.49,0.08,0.7c-0.17,0.21-0.49,0.25-0.7,0.08c-1.48-1.19-3.89-1.19-5.37,0C37.23,40.96,37.12,41,37.01,41z"/>
	</g>
	<path class="st4" d="M53,20.5c1.1,0,2-0.9,2-2c0-1.1-0.9-2-2-2c-0.41,0-0.79,0.12-1.11,0.33c-1.75-1.12-4.26-1.08-5.96,0.11
		c-1.78-0.92-3.8-1.45-5.93-1.45s-4.15,0.53-5.93,1.45c-1.7-1.19-4.21-1.23-5.96-0.11c-0.32-0.21-0.7-0.33-1.11-0.33
		c-1.1,0-2,0.9-2,2c0,1.1,0.9,2,2,2s2-0.9,2-2c0-0.33-0.09-0.64-0.23-0.91c1.28-0.75,3.01-0.79,4.33-0.09c-3.66,2.3-6.1,6.37-6.1,11
		v18c-0.55,0-1,0.45-1,1v3c0,2.52,0.67,4.88,1.84,6.93c0.67,1.17,0.47,2.64-0.48,3.59l-0.84,0.84c-0.57,0.57-0.68,1.5-0.16,2.11
		c0.3,0.35,0.72,0.53,1.15,0.53c0.38,0,0.77-0.15,1.06-0.44l0.92-0.92c0.95-0.95,2.42-1.15,3.59-0.48c2.04,1.17,4.41,1.84,6.93,1.84
		s4.88-0.67,6.93-1.84c1.17-0.67,2.64-0.47,3.59,0.48l0.92,0.92c0.29,0.29,0.68,0.44,1.06,0.44c0.42,0,0.84-0.18,1.15-0.53
		c0.52-0.61,0.4-1.54-0.16-2.11l-0.84-0.84c-0.95-0.95-1.15-2.42-0.48-3.59C53.33,55.38,54,53.02,54,50.5v-3c0-0.55-0.45-1-1-1v-18
		c0-4.63-2.44-8.69-6.1-11c1.31-0.7,3.05-0.67,4.33,0.09C51.09,17.86,51,18.17,51,18.5C51,19.6,51.9,20.5,53,20.5z M52,48.5V50H28
		v-1.5H52z M40,62.5c-6.45,0-11.71-5.12-11.97-11.5h23.95C51.71,57.38,46.45,62.5,40,62.5z M51,28.5v18H29v-18c0-6.07,4.93-11,11-11
		S51,22.43,51,28.5z"/>
	<g>
		<path class="st53" d="M44.6,32.39c-0.2-0.2-9-0.2-9.19,0s-0.2,0.51,0,0.71c0.78,0.78,1.71,1.33,2.74,1.63
			c0.82,0.24,1.36,1.03,1.36,1.89v0.88c0,0.28,0.22,0.5,0.5,0.5s0.5-0.22,0.5-0.5v-0.88c0-0.86,0.54-1.65,1.36-1.89
			c1.02-0.3,1.96-0.86,2.74-1.63C44.79,32.9,44.79,32.58,44.6,32.39z"/>
	</g>
	<g>
		<path class="st54" d="M44.6,32.39c-0.2-0.2-0.51-0.2-0.71,0C42.85,33.43,41.47,34,40,34s-2.85-0.57-3.89-1.61
			c-0.2-0.2-0.51-0.2-0.71,0s-0.2,0.51,0,0.71c0.78,0.78,1.71,1.33,2.74,1.63c0.82,0.24,1.36,1.03,1.36,1.89v0.88
			c0,0.28,0.22,0.5,0.5,0.5s0.5-0.22,0.5-0.5v-0.88c0-0.86,0.54-1.65,1.36-1.89c1.02-0.3,1.96-0.86,2.74-1.63
			C44.79,32.9,44.79,32.58,44.6,32.39z"/>
	</g>
	<g>
		<g>
			<path class="st55" d="M40,38c-0.28,0-0.5-0.22-0.5-0.5v-1c0-0.28,0.22-0.5,0.5-0.5s0.5,0.22,0.5,0.5v1C40.5,37.78,40.28,38,40,38
				z"/>
		</g>
	</g>
	<g>
		<circle class="st0" cx="53" cy="18.5" r="1"/>
	</g>
	<g>
		<circle class="st0" cx="27" cy="18.5" r="1"/>
	</g>
</g>
</svg>
