<?xml version="1.0" encoding="utf-8"?>
<!-- Generator: Adobe Illustrator 23.0.4, SVG Export Plug-In . SVG Version: 6.00 Build 0)  -->
<svg version="1.1" id="Layer_1" xmlns="http://www.w3.org/2000/svg" xmlns:xlink="http://www.w3.org/1999/xlink" x="0px" y="0px"
	 viewBox="0 0 80 80" style="enable-background:new 0 0 80 80;" xml:space="preserve">
<style type="text/css">
	.st0{fill:#81C56D;}
	.st1{fill:#5BAA5E;}
	.st2{fill:#B6D997;}
	.st3{fill:#FFFFFF;}
	.st4{fill:#310F32;}
	.st5{fill:#C9D6E3;}
	.st6{fill:#FFC626;}
	.st7{fill:#F99E1D;}
	.st8{fill:#F58127;}
	.st9{fill:#301330;}
	.st10{fill:#EA5535;}
	.st11{fill:#EF4F24;}
	.st12{fill:#F16333;}
	.st13{fill:#DF3426;}
	.st14{fill:#F6946C;}
	.st15{fill:#D6E1EC;}
	.st16{opacity:0.8;}
	.st17{fill:#B9CCDC;}
	.st18{fill:#310E31;}
	.st19{fill:#EA5435;}
	.st20{fill:#FEDD3F;}
	.st21{fill:#EAC01E;}
	.st22{fill:#7FC042;}
	.st23{fill:#65A944;}
	.st24{fill:#0CBEF0;}
	.st25{fill:#6F7BBC;}
	.st26{fill:#0097D5;}
	.st27{fill:#FDB515;}
	.st28{fill:#5365AF;}
	.st29{fill:#1F90CF;}
	.st30{fill:#F99F1B;}
	.st31{opacity:0.7;}
	.st32{fill:#FFF5CA;}
	.st33{opacity:0.6;}
	.st34{fill:#FBDAE8;}
	.st35{fill:#D5E4EF;}
	.st36{opacity:0.4;}
	.st37{fill:#B1DEF5;}
	.st38{opacity:0.5;}
	.st39{fill:#FCE6A0;}
	.st40{fill:#FDF4D2;}
	.st41{fill:#FDD457;}
	.st42{fill:#FFDA85;}
	.st43{fill:#F36F34;}
	.st44{fill:#FFFFFF;stroke:#310F32;stroke-linecap:round;stroke-linejoin:round;stroke-miterlimit:10;}
	.st45{fill:none;stroke:#310F32;stroke-linecap:round;stroke-linejoin:round;stroke-miterlimit:10;}
	.st46{fill:#EE3B24;}
	.st47{fill:#301431;}
	.st48{fill:#71AC43;}
	.st49{fill:#C1DC83;}
	.st50{opacity:0.2;}
	.st51{opacity:0.1;}
	.st52{opacity:0.15;}
	.st53{fill:#5EC1EE;}
	.st54{fill:#239FCB;}
	.st55{fill:#92D1F1;}
	.st56{fill:#B2DCF5;}
	.st57{fill:#FFDF98;}
	.st58{fill:#406DB5;}
	.st59{fill:#FCDE60;}
	.st60{fill:#DEF1FB;}
	.st61{fill:#82CBF0;}
	.st62{fill:#6681C0;}
	.st63{fill:#FBEBAA;}
	.st64{fill:#8799CE;}
	.st65{fill:#98A7D5;}
	.st66{fill:#ACD6F2;}
	.st67{fill:#CCE4F7;}
	.st68{fill:#8BC9EE;}
	.st69{fill:#ADBBC3;}
	.st70{fill:#7E8C9B;}
	.st71{fill:#3B8E4F;}
	.st72{fill:#F05E75;}
	.st73{fill:#FCE5D3;}
	.st74{fill:#F8C4A0;}
</style>
<g>
	<g>
		<g>
			<path class="st0" d="M58,55.5c0,1.66-1.34,3-3,3c-0.93,0-1.82-0.14-2.66-0.41c0.83,1.03,0.9,2.55,0.06,3.68
				c-0.59,0.79-1.49,1.2-2.4,1.2c-0.63,0-1.26-0.19-1.8-0.59C44.9,59.9,43,56.3,43,52.5v10c0,1.66-1.34,3-3,3
				c-0.83,0-1.58-0.34-2.12-0.88C37.34,64.08,37,63.33,37,62.5v-10c0,3.8-1.9,7.4-5.2,9.88c-0.54,0.4-1.17,0.59-1.8,0.59
				c-0.91,0-1.81-0.41-2.4-1.2c-0.84-1.13-0.77-2.65,0.06-3.68c-0.84,0.27-1.73,0.41-2.66,0.41c-1.66,0-3-1.34-3-3
				c0-1.66,1.34-3,3-3c1.65,0,3-1.35,3-3v-20c0-6.63,5.37-12,12-12c3.32,0,6.32,1.34,8.49,3.51C50.66,23.18,52,26.18,52,29.5v20
				c0,1.65,1.35,3,3,3C56.66,52.5,58,53.84,58,55.5z"/>
		</g>
		<g>
			<path class="st1" d="M27.41,61.47c0.05,0.1,0.12,0.2,0.19,0.3c0.59,0.79,1.49,1.2,2.4,1.2c0.63,0,1.26-0.19,1.8-0.59
				C35.1,59.9,37,56.3,37,52.5v-1h0c-1.08,0-1.99,0.74-2.27,1.78c-0.9,3.3-3.71,6.97-6.35,7.94C27.88,61.4,27.9,61.41,27.41,61.47z"
				/>
		</g>
		<g>
			<path class="st1" d="M25,57.5c0.93,0,1.82-0.14,2.66-0.41c0.16-0.19,0.34-0.37,0.54-0.52c1.81-1.35,2.8-3.15,2.8-5.07v-1
				c-1.49,2.9-2.42,5-5.9,5c-0.06,0-0.19-0.01-0.37-0.01c-1.28-0.07-1.47,1.88-0.19,2C24.69,57.49,24.84,57.5,25,57.5z"/>
		</g>
	</g>
	<g>
		<g>
			<path class="st1" d="M57.99,55.32c-0.31,0.12-0.71-2.12-1.99-2.82c-1.14-0.63-4.07-2.51-4.03-3.18C51.99,49.05,52,48.78,52,48.5
				v-19c0-3.16-1.22-6.03-3.21-8.17C45.65,17.96,40,20.21,40,24.81V37c-1.72,0-3.35-0.57-4.69-1.65c-0.21-0.17-0.53-0.14-0.7,0.08
				c-0.17,0.22-0.14,0.53,0.08,0.7c0.84,0.67,1.8,1.18,2.82,1.49c1.48,0.45,2.49,1.81,2.49,3.35l0,7.74c0,2.59,1.33,4.37,3.1,5.28
				c0.43,3.24,2.23,6.23,5.1,8.38c0.54,0.4,1.17,0.59,1.8,0.59c0.91,0,1.81-0.41,2.4-1.2c0.07-0.1,0.14-0.2,0.19-0.3
				c-0.49-0.06,0.83-1.65,0.41-1.97c-1.23-0.92,1.19-0.98,2.19-1c1.66-0.03,3.03-1.52,2.8-3.16C57.99,55.33,57.99,55.32,57.99,55.32
				z"/>
		</g>
		<g>
			<g>
				<path class="st2" d="M30,30.5c-0.55,0-1-0.45-1-1c0-2.98,1.17-5.77,3.3-7.86c0.39-0.39,1.03-0.38,1.41,0.01
					c0.39,0.39,0.38,1.03-0.01,1.41c-1.74,1.71-2.7,3.99-2.7,6.43C31,30.05,30.55,30.5,30,30.5z"/>
			</g>
		</g>
		<g>
			<g>
				<path class="st0" d="M43.88,37c-0.18,0-0.35-0.09-0.44-0.26c-0.13-0.24-0.05-0.55,0.2-0.68c1.5-0.83,2.68-2.16,3.32-3.75
					c0.1-0.26,0.39-0.38,0.65-0.28c0.26,0.1,0.38,0.4,0.28,0.65c-0.73,1.8-2.06,3.31-3.76,4.25C44.04,36.98,43.96,37,43.88,37z"/>
			</g>
		</g>
		<g>
			<path class="st1" d="M40,62.45V47.5l3,3v12c0,0.02,0,0.03,0,0.05C42.97,64.48,40,64.38,40,62.45z"/>
		</g>
	</g>
	<path class="st4" d="M55,51.5c-1.1,0-2-0.9-2-2v-20c0-3.48-1.35-6.75-3.8-9.2c-0.51-0.51-1.06-0.96-1.64-1.37
		c0.23-1.36,1.24-2.45,2.55-2.8c0.26,0.79,1.01,1.37,1.89,1.37c1.1,0,2-0.9,2-2s-0.9-2-2-2c-0.97,0-1.78,0.69-1.96,1.61
		c-1.64,0.36-2.94,1.62-3.37,3.24c-1.99-1.2-4.28-1.85-6.67-1.85c-2.44,0-4.71,0.69-6.66,1.86c-0.43-1.62-1.73-2.89-3.37-3.25
		c-0.18-0.92-0.99-1.61-1.96-1.61c-1.1,0-2,0.9-2,2s0.9,2,2,2c0.88,0,1.62-0.58,1.89-1.37c1.32,0.35,2.33,1.45,2.55,2.81
		C29.15,21.3,27,25.15,27,29.5v20c0,1.1-0.9,2-2,2c-2.21,0-4,1.79-4,4s1.79,4,4,4c0.35,0,0.69-0.02,1.03-0.05
		c-0.13,1.01,0.12,2.06,0.76,2.92c0.76,1.02,1.93,1.6,3.2,1.6c0.87,0,1.7-0.27,2.4-0.79c1.47-1.11,2.68-2.42,3.6-3.87v3.19
		c0,1.07,0.42,2.07,1.17,2.83c0.76,0.76,1.76,1.17,2.83,1.17c2.21,0,4-1.79,4-4v-3.19c0.92,1.45,2.13,2.77,3.6,3.88
		c0.69,0.51,1.52,0.79,2.4,0.79c1.27,0,2.44-0.58,3.2-1.6c0.64-0.86,0.89-1.91,0.76-2.92c0.34,0.04,0.69,0.05,1.03,0.05
		c2.21,0,4-1.79,4-4S57.21,51.5,55,51.5z M55,57.5c-0.74,0-1.45-0.11-2.13-0.31c-0.15-0.16-0.31-0.3-0.47-0.42
		C50.85,55.62,50,54.1,50,52.5v-1c0-0.55-0.45-1-1-1s-1,0.45-1,1v1c0,2.25,1.14,4.33,3.2,5.87c0.12,0.09,0.24,0.21,0.37,0.35
		c0.57,0.71,0.58,1.71,0.03,2.45c-0.64,0.86-1.96,1.03-2.8,0.41c-3.05-2.29-4.8-5.6-4.8-9.08c0-0.55-0.45-1-1-1s-1,0.45-1,1v10
		c0,1.1-0.9,2-2,2c-0.53,0-1.03-0.21-1.41-0.59C38.21,63.53,38,63.03,38,62.5v-10c0-0.55-0.45-1-1-1s-1,0.45-1,1
		c0,3.48-1.75,6.79-4.79,9.08c-0.85,0.63-2.16,0.45-2.8-0.4c-0.55-0.74-0.53-1.74,0.03-2.45c0.12-0.14,0.24-0.26,0.36-0.35
		c2.06-1.54,3.2-3.62,3.2-5.87v-1c0-0.55-0.45-1-1-1s-1,0.45-1,1v1c0,1.6-0.85,3.11-2.4,4.27c-0.16,0.12-0.31,0.27-0.47,0.42
		c-0.69,0.2-1.4,0.31-2.13,0.31c-1.1,0-2-0.9-2-2s0.9-2,2-2c2.21,0,4-1.79,4-4v-20c0-6.07,4.93-11,11-11c2.94,0,5.71,1.14,7.78,3.22
		S51,26.56,51,29.5v20c0,2.21,1.79,4,4,4c1.1,0,2,0.9,2,2S56.1,57.5,55,57.5z"/>
	<g>
		<g>
			<circle class="st3" cx="40" cy="29.5" r="7"/>
			<path class="st4" d="M40,37c-4.14,0-7.5-3.36-7.5-7.5S35.86,22,40,22s7.5,3.36,7.5,7.5S44.14,37,40,37z M40,23
				c-3.58,0-6.5,2.92-6.5,6.5S36.42,36,40,36s6.5-2.92,6.5-6.5S43.58,23,40,23z"/>
		</g>
		<g>
			<path class="st5" d="M45.32,25.77c-0.45-0.64-1.44-0.22-1.36,0.56c0.2,1.88-0.42,3.83-1.86,5.27c-1.44,1.44-3.39,2.06-5.27,1.86
				c-0.78-0.08-1.2,0.91-0.56,1.36c1.31,0.92,2.98,1.38,4.75,1.11c2.75-0.42,4.99-2.65,5.41-5.41
				C46.69,28.74,46.24,27.08,45.32,25.77z"/>
		</g>
		<g>
			<path class="st4" d="M41,29.5c0,0.55-0.45,1-1,1s-1-0.45-1-1c0-0.55,0.45-1,1-1S41,28.95,41,29.5z"/>
		</g>
	</g>
	<g>
		<path class="st4" d="M40,39c-1.38,0-2.5,1.12-2.5,2.5v6c0,1.38,1.12,2.5,2.5,2.5s2.5-1.12,2.5-2.5v-6C42.5,40.12,41.38,39,40,39z"
			/>
		<path class="st11" d="M41.39,48.07c-0.36-0.35-0.84-0.57-1.39-0.57s-1.03,0.22-1.39,0.57C38.84,48.62,39.38,49,40,49
			C40.62,49,41.16,48.62,41.39,48.07z"/>
	</g>
	<g>
		<circle class="st0" cx="52" cy="15.5" r="1"/>
	</g>
	<g>
		<circle class="st0" cx="28" cy="15.5" r="1"/>
	</g>
</g>
</svg>
